<svg id="Layer_1" data-name="Layer 1" xmlns="http://www.w3.org/2000/svg" viewBox="0 0 558 940.65"><defs><style>.cls-1,.cls-2,.cls-3{stroke:#000;stroke-miterlimit:10;}.cls-2,.cls-3{fill:#fff;}.cls-2{stroke-width:4px;}</style></defs><path class="cls-1" d="M495.77,969,258.45,417.15a17.66,17.66,0,0,1,16.23-24.65H749.32a17.66,17.66,0,0,1,16.23,24.65L528.23,969C522.1,983.21,501.9,983.21,495.77,969Z" transform="translate(-233 -39.5)"/><circle class="cls-2" cx="279" cy="279" r="277"/><rect class="cls-1" x="200.5" y="316" width="29" height="66"/><rect class="cls-1" x="328.5" y="316" width="29" height="66"/><path class="cls-1" d="M215.5,192h127a15,15,0,0,1,15,15V349a0,0,0,0,1,0,0h-157a0,0,0,0,1,0,0V207A15,15,0,0,1,215.5,192Z"/><path class="cls-3" d="M230,222h98a15,15,0,0,1,15,15v43a0,0,0,0,1,0,0H215a0,0,0,0,1,0,0V237A15,15,0,0,1,230,222Z"/><circle class="cls-3" cx="226.63" cy="316.04" r="11.96"/><circle class="cls-3" cx="331.17" cy="316.34" r="11.96"/><rect class="cls-1" x="480.75" y="289.5" width="61.5" height="1.5" transform="translate(-11.75 762.25) rotate(-90)"/></svg>