
<svg id="Layer_1" data-name="Layer 1" xmlns="http://www.w3.org/2000/svg" viewBox="0 0 1024 1024"><defs><style>.cls-1{fill:#a78966;}.cls-2{fill:#b39a7c;}.cls-3{fill:#c0ab91;}.cls-4{fill:#d9ccbc;}.cls-5{fill:#ebe5dd;}.cls-6{fill:#554431;}.cls-7{fill:#6a563d;}.cls-8{fill:#736357;}.cls-9{fill:#b3b3b3;}</style></defs><path class="cls-1" d="M920.74,904a27.51,27.51,0,0,1-3.22,12.63c-26.77,52-217.73,92.61-449.3,92.61-250,0-452.56-47.13-452.56-105.24,0-20.28,24.72-39.24,67.65-55.42,79.82-29.88,222.35-49.79,384.91-49.79C718.14,798.87,920.74,845.93,920.74,904Z" transform="translate(0 0)"/><path class="cls-2" d="M920.74,904a27.51,27.51,0,0,1-3.22,12.63c-79.63,29.89-222.32,49.84-384.88,49.84-250,0-452.56-47.11-452.56-105.18a27.37,27.37,0,0,1,3.23-12.63c79.82-29.89,222.35-49.8,384.91-49.8C718.14,798.87,920.74,845.93,920.74,904Z" transform="translate(0 0)"/><path class="cls-3" d="M825.18,394V445c0,85.37-16.15,167.23-45.16,237.65s-70.94,129.29-122.47,169C612.76,886.05,562.75,904,512.36,904h-95.9a219.66,219.66,0,0,1-74.74-13.3,259.81,259.81,0,0,1-70.41-39.12C168.24,772.35,103.67,615.71,103.67,445V394Z" transform="translate(0 0)"/><path class="cls-4" d="M825.18,394V445c0,85.37-16.15,167.23-45.16,237.65s-70.94,129.29-122.47,169C612.76,886.05,562.75,904,512.36,904H486.23a219.42,219.42,0,0,1-74.74-13.3A260.73,260.73,0,0,1,341,851.59C238,772.35,173.44,615.71,173.44,445V394Z" transform="translate(0 0)"/><path class="cls-5" d="M825.18,394c0,13.7-10.2,26.74-28.62,38.6a163.33,163.33,0,0,1-17.37,9.64C738.65,462.07,674,477.63,596,486c-29.95,3.22-61.88,5.32-95.1,6.24q-18,.48-36.51.52c-9.18,0-18.24,0-27.23-.29-36.59-.74-71.66-3-104.39-6.51-72.54-7.75-133.62-21.79-174.42-39.67a184.78,184.78,0,0,1-26.17-13.67c-18.43-11.86-28.59-24.9-28.59-38.6,0-25.86,35.8-49.06,94.49-66.5a691.19,691.19,0,0,1,93.74-20.17,1152.86,1152.86,0,0,1,143.41-11.67q14.44-.33,29.16-.33,19.41,0,38.22.55A1146.07,1146.07,0,0,1,637,307.36,643.55,643.55,0,0,1,742.1,331.08C794,348,825.18,370.16,825.18,394Z" transform="translate(0 0)"/><path class="cls-6" d="M796.56,432.63a163.33,163.33,0,0,1-17.37,9.64C738.65,462.07,674,477.63,596,486c-28,3-57.71,5.06-88.61,6.06l-6.49.18q-18,.48-36.51.52c-9.18,0-18.24,0-27.23-.29-36.59-.74-71.66-3-104.39-6.51-72.54-7.75-133.62-21.79-174.42-39.67a184.78,184.78,0,0,1-26.17-13.67c16.12-10.38,38.49-19.8,65.9-28a684.37,684.37,0,0,1,93.7-20.09,1151,1151,0,0,1,143.41-11.71c9.63-.23,19.34-.3,29.16-.3q19.41,0,38.22.55h5A1132.11,1132.11,0,0,1,637,384.35a643.76,643.76,0,0,1,105.11,23.71A242.79,242.79,0,0,1,796.56,432.63Z" transform="translate(0 0)"/><path class="cls-7" d="M796.56,432.63a163.33,163.33,0,0,1-17.37,9.64C738.65,462.07,674,477.63,596,486c-28,3-57.71,5.06-88.61,6.06-30.72-1-60.22-3.07-88-6.1C346.88,478.22,285.83,464.18,245,446.3h-.3a14.64,14.64,0,0,1-8.07-19.36,15,15,0,0,1,8.07-7.87,361.68,361.68,0,0,1,39.89-14.37,684.05,684.05,0,0,1,93.7-20.09A1134.73,1134.73,0,0,1,507.43,373.3,1122.75,1122.75,0,0,1,636.8,384.61a647.17,647.17,0,0,1,105.12,23.68A244.21,244.21,0,0,1,796.56,432.63Z" transform="translate(0 0)"/><path class="cls-8" d="M840.58,448.37V394c0-95-306.16-132.22-526.27-105a15.07,15.07,0,0,0-12.63,17.34,15.36,15.36,0,0,0,16.42,12.47c130.82-16.14,308.43-10.16,419,26.34,53.5,17.66,72.58,36.94,72.58,48.84,0,10.52-13.65,23.23-37.47,34.83C733,448,669.83,463,594.3,471.09,357.61,496.39,119,444.86,119,394c0-13.19,21.95-33.84,83.42-52.28q27.5-8.12,55.74-13.52a15.08,15.08,0,0,0,12.13-17.73,15.45,15.45,0,0,0-18.2-11.82C195.24,309.76,88,337.62,88,393.92c2.27,17.25-20.63,242.55,113.34,409.75C138.71,814.13,0,842.2,0,903.93c0,117.37,519.67,152.17,791.55,89,95.78-22.17,144.39-52.2,144.39-89,0-62.8-144.09-91-207.94-101.33q9.51-12,18.39-25.08c137.27-6.95,236.23-65.79,272.29-196.13C1052.28,460.74,918.73,383.76,840.58,448.37Zm148.56,125.3c-10.88,39.31-42.92,155.16-223,172.41q2.73-4.77,5.35-9.64a14.87,14.87,0,0,0-7.16-20.09,15.65,15.65,0,0,0-20.18,6.16C696.6,811.17,615.27,889,512.36,889h-95.9A207.76,207.76,0,0,1,328,868.88,15.64,15.64,0,0,0,307.05,875a14.83,14.83,0,0,0,6.28,20.36c.42.22.84.42,1.28.6,44.52,20.88,80.35,23.68,118.27,23.46h79.63c74.81,0,141.59-36.72,192.4-89.73,28.66,4.14,55.43,9.09,79.85,14.78,95.29,22.16,120.7,48,120.7,59.73S880.05,941.83,784.76,964c-174.42,40.64-458.21,40.64-632.86,0-95.25-22.16-120.69-48-120.69-59.77s25.44-37.57,120.69-59.73c22.56-5.25,47.13-9.83,73.3-13.78A336.4,336.4,0,0,0,259.86,862a15.41,15.41,0,0,0,9.63,3.32,15.23,15.23,0,0,0,15.42-15,14.89,14.89,0,0,0-5.75-11.7C112.88,708.1,120.24,448.29,119.25,442.2c124.87,87.85,566.62,86.77,690.65,0-.53,5.8,4.29,112.37-40.95,227.3a14.89,14.89,0,0,0,8,19.79,15.6,15.6,0,0,0,20.31-7.78c.18-.4.34-.81.48-1.22A631.12,631.12,0,0,0,838,506.66c9.75-36.75,48.09-59,85.89-49.76C970.11,468.09,1005.72,513.27,989.14,573.67Z" transform="translate(0 0)"/><path class="cls-9" d="M367.73,256.16h0a15.24,15.24,0,0,0,15.4-15c0-20.53,20.21-23.79,20.21-56.37a57.44,57.44,0,0,0-12.85-36.94c-4.59-6.39-7.36-10.23-7.36-19.58,0-20.58,20.21-23.83,20.21-56.41a15.44,15.44,0,0,0-30.83-1.49c0,.5,0,1,0,1.49,0,20.58-20.21,23.83-20.21,56.41a57.33,57.33,0,0,0,12.89,36.94c4.55,6.36,7.32,10.2,7.32,19.58,0,20.58-20.21,23.79-20.21,56.37a15.24,15.24,0,0,0,15.43,15Z" transform="translate(0 0)"/><path class="cls-9" d="M540.91,256.16a15.24,15.24,0,0,0,15.43-15h0c0-20.57,20.21-23.79,20.21-56.37a57.4,57.4,0,0,0-12.89-36.94c-4.59-6.39-7.32-10.23-7.32-19.58,0-20.58,20.21-23.83,20.21-56.41a15.44,15.44,0,0,0-30.86,0h0c0,20.58-20.21,23.83-20.21,56.41a57.51,57.51,0,0,0,12.89,36.94c4.55,6.36,7.32,10.2,7.32,19.58,0,20.58-20.21,23.79-20.21,56.37A15.24,15.24,0,0,0,540.91,256.16Z" transform="translate(0 0)"/><path class="cls-9" d="M454.3,254.09a15.24,15.24,0,0,0,15.44-15h0c0-31.26,20.21-33.62,20.21-74.4s-20.21-43.74-20.21-74.44S490,56.6,490,15.78a15.44,15.44,0,0,0-30.83-1.49c0,.5,0,1,0,1.49C459.19,47,439,49.4,439,90.22s20.21,43.7,20.21,74.44S439,198.42,439,239.06A15.23,15.23,0,0,0,454.3,254.09Z" transform="translate(0 0)"/></svg>