<svg id="Layer_1" data-name="Layer 1" xmlns="http://www.w3.org/2000/svg" viewBox="0 0 912.41 720.55"><defs><style>.cls-1{fill:#4d4d4d;}</style></defs><path class="cls-1" d="M152.92,213.11,171,241.73l-85.2,49.75,118.81,69.85L186,390.86,50,306.32V276.91ZM195.2,419.48l-32.43-14.83L280.92,159.41l32.17,14.84ZM291.82,189l141.78,87.7v29.67L331.34,369.86l-18.78-28.23,85.34-50.15L273.44,218.75Z" transform="translate(-50 -159.41)"/><path class="cls-1" d="M640,403.38v28.88a59.1,59.1,0,0,0-13.72,1.38,14.81,14.81,0,0,0-8.54,5q-2.82,3.61-2.16,10.31l4.07,38.73q1.58,14.7-3.22,23.76a31.75,31.75,0,0,1-14.57,13.85,78.16,78.16,0,0,1-23,6.76q14,2.1,23.76,6.83a29.87,29.87,0,0,1,14.18,13.65q4.46,8.93,2.89,23.9l-4.07,38.72q-.66,6.57,2.16,10.24t8.6,5.06A59.34,59.34,0,0,0,640,631.81v28.88q-18.12,0-30.72-2.63t-20.16-8.33a28.84,28.84,0,0,1-10.37-15q-2.82-9.25-1.51-22.51l3.94-37.55q1.05-10-3.35-15.62t-12.93-8a76.13,76.13,0,0,0-19.69-2.29V515.23a75.55,75.55,0,0,0,19.56-2.3q8.54-2.29,13-7.94t3.41-15.62l-3.94-37.29q-1.44-13.51,1.38-22.84a28.76,28.76,0,0,1,10.37-15q7.54-5.71,20.22-8.27T640,403.38Z" transform="translate(-50 -159.41)"/><path class="cls-1" d="M753.8,572.2A26.74,26.74,0,0,1,773.37,580a26.35,26.35,0,0,1,7.87,19.5,44.13,44.13,0,0,1-2.82,15q-2.82,7.82-8.07,19.89L752.1,675.79H725.32L738.18,622q-12.07-7.74-12.08-22.71a25.75,25.75,0,0,1,8-19.3A27.25,27.25,0,0,1,753.8,572.2Zm0-89.79a26.09,26.09,0,0,1,19.5,8.2,27.5,27.5,0,0,1,0,38.66,26.19,26.19,0,0,1-19.5,8.14A27.69,27.69,0,0,1,726.1,510a26.13,26.13,0,0,1,3.75-13.72,29,29,0,0,1,10-10.05A26.46,26.46,0,0,1,753.8,482.41Z" transform="translate(-50 -159.41)"/><path class="cls-1" d="M867.62,403.38q18.12,0,30.72,2.62t20.15,8.34a29.07,29.07,0,0,1,10.44,15q2.9,9.26,1.45,22.52l-3.94,37.55q-1.05,10,3.41,15.62t12.93,7.94a75.4,75.4,0,0,0,19.63,2.3v33.61a75.57,75.57,0,0,0-19.56,2.29q-8.54,2.31-13,8t-3.41,15.62L930.38,612q1.44,13.53-1.38,22.85a28.85,28.85,0,0,1-10.38,15q-7.54,5.7-20.21,8.27a158.74,158.74,0,0,1-30.79,2.56V631.81a59.16,59.16,0,0,0,13.72-1.38,14.68,14.68,0,0,0,8.54-5.06q2.82-3.68,2.16-10.24L888,576.41q-1.58-14.83,3.22-23.83a31.76,31.76,0,0,1,14.64-13.79,79.24,79.24,0,0,1,23.1-6.76q-14.05-2.1-23.83-6.82a29.79,29.79,0,0,1-14.24-13.72q-4.47-9-2.89-23.83L892,448.93q.66-6.69-2.16-10.31a14.81,14.81,0,0,0-8.54-5,59.16,59.16,0,0,0-13.72-1.38Z" transform="translate(-50 -159.41)"/><path class="cls-1" d="M248.77,703.52,276,726.89l-18.38,20q-5.38,5.77-10.5,10.83T236.83,767a100.41,100.41,0,0,1-10.77,7.81h55.4v33.87h-55A127.18,127.18,0,0,1,242.14,821a217.53,217.53,0,0,1,15.43,15.68l18.38,20L248.77,880l-79.42-88.22Zm78.51,127.35a22.74,22.74,0,0,1,16.87,7,23.78,23.78,0,0,1,0,33.48,23.72,23.72,0,1,1-16.87-40.5ZM349.33,692l-5.25,115H310.61l-5.39-115ZM376.9,808.68V774.81H771.41v33.87Z" transform="translate(-50 -159.41)"/></svg>